<svg width="62" height="24" viewBox="0 0 62 24" fill="none" xmlns="http://www.w3.org/2000/svg">
<path d="M51.5616 6.22944V3.27118C53.4301 3.17802 54.7072 1.83811 54.8004 0.000976562H57.7901C57.7273 3.45856 55.0181 6.10592 51.5605 6.23049L51.5616 6.22944Z" fill="#022A9A"/>
<path d="M34.577 20.3814V23.638H33.6118C31.4408 23.638 30.0841 22.7336 29.6622 21.0451C28.426 22.8539 26.4664 24.0002 24.1142 24.0002C19.7731 24.0002 16.5469 20.5332 16.5469 15.9503C16.5469 11.3674 19.7731 7.90039 24.1142 7.90039C26.3753 7.90039 28.2752 8.95557 29.5105 10.6441V8.26258H32.8874V18.9661C32.8874 19.8402 33.4004 20.3835 34.3048 20.3835H34.5759L34.577 20.3814ZM29.5115 15.9492C29.5115 13.2359 27.4912 11.1549 24.7779 11.1549C22.0646 11.1549 20.0139 13.2349 20.0139 15.9492C20.0139 18.6636 22.0342 20.7425 24.7779 20.7425C27.5215 20.7425 29.5115 18.6625 29.5115 15.9492Z" fill="#022A9A"/>
<path d="M37.3135 0H40.9009V23.6378H37.3135V0Z" fill="#022A9A"/>
<path d="M61.3748 20.3814V23.638H60.4096C58.2385 23.638 56.8819 22.7336 56.46 21.0451C55.2237 22.8539 53.2641 24.0002 50.913 24.0002C46.5709 24.0002 43.3457 20.5332 43.3457 15.9503C43.3457 11.3674 46.5719 7.90039 50.913 7.90039C53.1741 7.90039 55.0741 8.95557 56.3093 10.6441V8.26258H59.6863V18.9661C59.6863 19.8402 60.1992 20.3835 61.1036 20.3835H61.3748V20.3814ZM56.3093 15.9492C56.3093 13.2359 54.289 11.1549 51.5757 11.1549C48.8623 11.1549 46.8117 13.2349 46.8117 15.9492C46.8117 18.6636 48.832 20.7425 51.5757 20.7425C54.3193 20.7425 56.3093 18.6625 56.3093 15.9492Z" fill="#022A9A"/>
<path d="M7.14026 23.9987C2.86408 23.9987 0.232422 21.6811 0.232422 18.0979V8.31348H3.58428V17.0124C3.58428 19.6912 4.99118 20.7777 7.14549 20.7777C9.41915 20.7777 10.9454 19.5718 10.9454 17.0124V8.31348H14.2972V18.1251C14.2972 22.0245 11.4363 23.9987 7.14131 23.9987H7.14026Z" fill="#022A9A"/>
</svg>
